<svg xmlns="http://www.w3.org/2000/svg" version="1.1" xmlns:xlink="http://www.w3.org/1999/xlink" width="512" height="512" x="0" y="0" viewBox="0 0 500 500" style="enable-background:new 0 0 512 512" xml:space="preserve" class=""><g><path d="M175 197.011h150V500l-75-44-75 44z" style="" fill="#6864f7" data-original="#6864f7"></path><path d="M266.2 12.032a65.63 65.63 0 0 1 62.031 16.621 65.63 65.63 0 0 0 28.06 16.2 65.633 65.633 0 0 1 45.41 45.41 65.63 65.63 0 0 0 16.2 28.06 65.63 65.63 0 0 1 16.621 62.031 65.628 65.628 0 0 0 0 32.401 65.63 65.63 0 0 1-16.621 62.031 65.63 65.63 0 0 0-16.2 28.06 65.633 65.633 0 0 1-45.41 45.41 65.63 65.63 0 0 0-28.06 16.2 65.63 65.63 0 0 1-62.031 16.621 65.628 65.628 0 0 0-32.401 0 65.63 65.63 0 0 1-62.031-16.621 65.63 65.63 0 0 0-28.06-16.2 65.633 65.633 0 0 1-45.41-45.41 65.63 65.63 0 0 0-16.2-28.06 65.63 65.63 0 0 1-16.621-62.031 65.628 65.628 0 0 0 0-32.401 65.63 65.63 0 0 1 16.621-62.031 65.63 65.63 0 0 0 16.2-28.06 65.633 65.633 0 0 1 45.41-45.41 65.63 65.63 0 0 0 28.06-16.2 65.63 65.63 0 0 1 62.031-16.621 65.628 65.628 0 0 0 32.401 0z" style="" fill="#fdcb50" data-original="#fdcb50" class=""></path><path d="M196.337 173.444c0-63.046 25.926-120.028 67.684-160.899a65.628 65.628 0 0 1-30.221-.513 65.63 65.63 0 0 0-62.031 16.621 65.637 65.637 0 0 1-28.06 16.2 65.633 65.633 0 0 0-45.41 45.41 65.63 65.63 0 0 1-16.2 28.06 65.631 65.631 0 0 0-16.621 62.031 65.628 65.628 0 0 1 0 32.401 65.633 65.633 0 0 0 16.621 62.031 65.63 65.63 0 0 1 16.2 28.06 65.633 65.633 0 0 0 45.41 45.41 65.623 65.623 0 0 1 28.06 16.201 65.63 65.63 0 0 0 62.031 16.621 65.628 65.628 0 0 1 32.401 0 65.633 65.633 0 0 0 51.089-8.018c-71.886-37.597-120.953-112.871-120.953-199.616z" style="" fill="#fd8f01" data-original="#fd8f01"></path><path d="M143.181 239.045h213.638v48.069H143.181z" style="" fill="#fd7da0" data-original="#fd7da0"></path><path d="M250 138.023c0-17.91 14.865-32.025 32.78-32.025h74.039v133.047H282.78c-17.914 0-32.78 14.116-32.78 32.025V138.023z" style="" fill="#ffffff" data-original="#ffffff" class=""></path><path d="M250 138.023c0-18.049-14.865-32.025-32.78-32.025h-74.039v133.047h74.039c17.914 0 32.78 14.165 32.78 32.025V138.023z" style="" fill="#d2dcfd" data-original="#d2dcfd"></path><path d="M266.2 12.032h0a65.63 65.63 0 0 1 62.031 16.621h0a65.63 65.63 0 0 0 28.06 16.2h0a65.633 65.633 0 0 1 45.41 45.41h0a65.63 65.63 0 0 0 16.2 28.06h0a65.63 65.63 0 0 1 16.621 62.031v0a65.628 65.628 0 0 0 0 32.401v0a65.63 65.63 0 0 1-16.621 62.031h0a65.63 65.63 0 0 0-16.2 28.06h0a65.633 65.633 0 0 1-45.41 45.41h0a65.63 65.63 0 0 0-28.06 16.2h0a65.63 65.63 0 0 1-62.031 16.621h0a65.628 65.628 0 0 0-32.401 0h0a65.63 65.63 0 0 1-62.031-16.621h0a65.63 65.63 0 0 0-28.06-16.2h0a65.633 65.633 0 0 1-45.41-45.41h0a65.63 65.63 0 0 0-16.2-28.06h0a65.63 65.63 0 0 1-16.621-62.031h0a65.628 65.628 0 0 0 0-32.401h0a65.63 65.63 0 0 1 16.621-62.031h0a65.63 65.63 0 0 0 16.2-28.06h0a65.633 65.633 0 0 1 45.41-45.41h0a65.63 65.63 0 0 0 28.06-16.2h0a65.63 65.63 0 0 1 62.031-16.621h0a65.628 65.628 0 0 0 32.401 0z" style="stroke-width:20;stroke-linecap:round;stroke-linejoin:round;stroke-miterlimit:10;" fill="none" stroke="#052a75" stroke-width="20" stroke-linecap="round" stroke-linejoin="round" stroke-miterlimit="10" data-original="#052a75" class=""></path><path d="M356.819 239.045v48.068H143.181v-48.068" style="stroke-width:20;stroke-linejoin:round;stroke-miterlimit:10;" fill="none" stroke="#052a75" stroke-width="20" stroke-linejoin="round" stroke-miterlimit="10" data-original="#052a75" class=""></path><path d="M250 271.07v16.043M250 138.023c0-17.91 14.865-32.025 32.78-32.025h74.039v133.047h0-74.039c-17.914 0-32.78 14.116-32.78 32.025V138.023z" style="stroke-width:20;stroke-linecap:round;stroke-linejoin:round;stroke-miterlimit:10;" fill="none" stroke="#052a75" stroke-width="20" stroke-linecap="round" stroke-linejoin="round" stroke-miterlimit="10" data-original="#052a75" class=""></path><path d="M250 138.023c0-18.049-14.865-32.025-32.78-32.025h-74.039v133.047h74.039c17.914 0 32.78 14.165 32.78 32.025V138.023z" style="stroke-width:20;stroke-linecap:round;stroke-linejoin:round;stroke-miterlimit:10;" fill="none" stroke="#052a75" stroke-width="20" stroke-linecap="round" stroke-linejoin="round" stroke-miterlimit="10" data-original="#052a75" class=""></path></g></svg>